<?xml version="1.0" encoding="utf-8"?>
<!-- Generator: Adobe Illustrator 23.1.0, SVG Export Plug-In . SVG Version: 6.00 Build 0)  -->
<svg version="1.2" baseProfile="tiny" id="Слой_1"
	 xmlns="http://www.w3.org/2000/svg" xmlns:xlink="http://www.w3.org/1999/xlink" x="0px" y="0px" viewBox="0 0 469.21 812.22"
	 xml:space="preserve">
<rect fill="none" stroke="#C9C8C8" stroke-width="3" stroke-miterlimit="10" width="32.69" height="812.22"/>
<rect x="436.52" y="0" fill="none" stroke="#C9C8C8" stroke-width="3" stroke-miterlimit="10" width="32.69" height="812.22"/>
<rect x="218.26" y="561.27" transform="matrix(-1.836970e-16 1 -1 -1.836970e-16 1030.4786 561.2697)" fill="none" stroke="#C9C8C8" stroke-width="3" stroke-miterlimit="10" width="32.69" height="469.21"/>
<rect x="218.26" y="-218.26" transform="matrix(-1.836970e-16 1 -1 -1.836970e-16 250.9476 -218.2612)" fill="none" stroke="#C9C8C8" stroke-width="3" stroke-miterlimit="10" width="32.69" height="469.21"/>
<rect x="32.69" y="424.03" fill="#DEDEDE" width="402.27" height="354.06"/>
<rect x="33.44" y="32.69" fill="#DEDEDE" width="402.32" height="357.08"/>
<g>
	<rect x="35.72" y="425.19" fill="none" width="397.64" height="351.33"/>
	<line fill="none" x1="35.72" y1="717.96" x2="433.36" y2="717.96"/>
	<line fill="none" x1="35.72" y1="659.4" x2="433.36" y2="659.4"/>
	<line fill="none" x1="35.72" y1="600.85" x2="433.36" y2="600.85"/>
	<line fill="none" x1="35.72" y1="542.3" x2="433.36" y2="542.3"/>
	<line fill="none" x1="35.72" y1="483.74" x2="433.36" y2="483.74"/>
	<line fill="none" x1="367.09" y1="425.19" x2="367.09" y2="776.51"/>
	<line fill="none" x1="300.81" y1="425.19" x2="300.81" y2="776.51"/>
	<line fill="none" x1="234.54" y1="425.19" x2="234.54" y2="776.51"/>
	<line fill="none" x1="168.26" y1="425.19" x2="168.26" y2="776.51"/>
	<line fill="none" x1="101.99" y1="425.19" x2="101.99" y2="776.51"/>
</g>
<g>
	<rect x="35.72" y="427.21" fill="none" width="397.64" height="351.33"/>
	<line fill="none" x1="35.72" y1="719.98" x2="433.36" y2="719.98"/>
	<line fill="none" x1="35.72" y1="661.43" x2="433.36" y2="661.43"/>
	<line fill="none" x1="35.72" y1="602.87" x2="433.36" y2="602.87"/>
	<line fill="none" x1="35.72" y1="544.32" x2="433.36" y2="544.32"/>
	<line fill="none" x1="35.72" y1="485.76" x2="433.36" y2="485.76"/>
	<line fill="none" x1="367.09" y1="427.21" x2="367.09" y2="778.53"/>
	<line fill="none" x1="300.81" y1="427.21" x2="300.81" y2="778.53"/>
	<line fill="none" x1="234.54" y1="427.21" x2="234.54" y2="778.53"/>
	<line fill="none" x1="168.26" y1="427.21" x2="168.26" y2="778.53"/>
	<line fill="none" x1="101.99" y1="427.21" x2="101.99" y2="778.53"/>
</g>
<g>
	
		<rect x="32.69" y="422.45" fill="none" stroke="#C9C8C8" stroke-width="3" stroke-miterlimit="10" width="403.84" height="357.08"/>
	<line fill="none" stroke="#C9C8C8" stroke-width="3" stroke-miterlimit="10" x1="32.69" y1="747.07" x2="436.52" y2="747.07"/>
	<line fill="none" stroke="#C9C8C8" stroke-width="3" stroke-miterlimit="10" x1="32.69" y1="714.61" x2="436.52" y2="714.61"/>
	<line fill="none" stroke="#C9C8C8" stroke-width="3" stroke-miterlimit="10" x1="32.69" y1="682.15" x2="436.52" y2="682.15"/>
	<line fill="none" stroke="#C9C8C8" stroke-width="3" stroke-miterlimit="10" x1="32.69" y1="649.68" x2="436.52" y2="649.68"/>
	<line fill="none" stroke="#C9C8C8" stroke-width="3" stroke-miterlimit="10" x1="32.69" y1="617.22" x2="436.52" y2="617.22"/>
	<line fill="none" stroke="#C9C8C8" stroke-width="3" stroke-miterlimit="10" x1="32.69" y1="584.76" x2="436.52" y2="584.76"/>
	<line fill="none" stroke="#C9C8C8" stroke-width="3" stroke-miterlimit="10" x1="32.69" y1="552.3" x2="436.52" y2="552.3"/>
	<line fill="none" stroke="#C9C8C8" stroke-width="3" stroke-miterlimit="10" x1="32.69" y1="519.84" x2="436.52" y2="519.84"/>
	<line fill="none" stroke="#C9C8C8" stroke-width="3" stroke-miterlimit="10" x1="32.69" y1="487.38" x2="436.52" y2="487.38"/>
	<line fill="none" stroke="#C9C8C8" stroke-width="3" stroke-miterlimit="10" x1="32.69" y1="454.91" x2="436.52" y2="454.91"/>
	<line fill="none" stroke="#C9C8C8" stroke-width="3" stroke-miterlimit="10" x1="402.87" y1="422.45" x2="402.87" y2="779.53"/>
	<line fill="none" stroke="#C9C8C8" stroke-width="3" stroke-miterlimit="10" x1="369.22" y1="422.45" x2="369.22" y2="779.53"/>
	<line fill="none" stroke="#C9C8C8" stroke-width="3" stroke-miterlimit="10" x1="335.56" y1="422.45" x2="335.56" y2="779.53"/>
	<line fill="none" stroke="#C9C8C8" stroke-width="3" stroke-miterlimit="10" x1="301.91" y1="422.45" x2="301.91" y2="779.53"/>
	<line fill="none" stroke="#C9C8C8" stroke-width="3" stroke-miterlimit="10" x1="268.26" y1="422.45" x2="268.26" y2="779.53"/>
	<line fill="none" stroke="#C9C8C8" stroke-width="3" stroke-miterlimit="10" x1="234.6" y1="422.45" x2="234.6" y2="779.53"/>
	<line fill="none" stroke="#C9C8C8" stroke-width="3" stroke-miterlimit="10" x1="200.95" y1="422.45" x2="200.95" y2="779.53"/>
	<line fill="none" stroke="#C9C8C8" stroke-width="3" stroke-miterlimit="10" x1="167.3" y1="422.45" x2="167.3" y2="779.53"/>
	<line fill="none" stroke="#C9C8C8" stroke-width="3" stroke-miterlimit="10" x1="133.65" y1="422.45" x2="133.65" y2="779.53"/>
	<line fill="none" stroke="#C9C8C8" stroke-width="3" stroke-miterlimit="10" x1="99.99" y1="422.45" x2="99.99" y2="779.53"/>
	<line fill="none" stroke="#C9C8C8" stroke-width="3" stroke-miterlimit="10" x1="66.34" y1="422.45" x2="66.34" y2="779.53"/>
</g>
<g>
	<rect x="32.69" y="32.69" fill="none" stroke="#C9C8C8" stroke-width="3" stroke-miterlimit="10" width="403.84" height="357.08"/>
	<line fill="none" stroke="#C9C8C8" stroke-width="3" stroke-miterlimit="10" x1="32.69" y1="357.3" x2="436.52" y2="357.3"/>
	<line fill="none" stroke="#C9C8C8" stroke-width="3" stroke-miterlimit="10" x1="32.69" y1="324.84" x2="436.52" y2="324.84"/>
	<line fill="none" stroke="#C9C8C8" stroke-width="3" stroke-miterlimit="10" x1="32.69" y1="292.38" x2="436.52" y2="292.38"/>
	<line fill="none" stroke="#C9C8C8" stroke-width="3" stroke-miterlimit="10" x1="32.69" y1="259.92" x2="436.52" y2="259.92"/>
	<line fill="none" stroke="#C9C8C8" stroke-width="3" stroke-miterlimit="10" x1="32.69" y1="227.46" x2="436.52" y2="227.46"/>
	<line fill="none" stroke="#C9C8C8" stroke-width="3" stroke-miterlimit="10" x1="32.69" y1="195" x2="436.52" y2="195"/>
	<line fill="none" stroke="#C9C8C8" stroke-width="3" stroke-miterlimit="10" x1="32.69" y1="162.53" x2="436.52" y2="162.53"/>
	<line fill="none" stroke="#C9C8C8" stroke-width="3" stroke-miterlimit="10" x1="32.69" y1="130.07" x2="436.52" y2="130.07"/>
	<line fill="none" stroke="#C9C8C8" stroke-width="3" stroke-miterlimit="10" x1="32.69" y1="97.61" x2="436.52" y2="97.61"/>
	<line fill="none" stroke="#C9C8C8" stroke-width="3" stroke-miterlimit="10" x1="32.69" y1="65.15" x2="436.52" y2="65.15"/>
	<line fill="none" stroke="#C9C8C8" stroke-width="3" stroke-miterlimit="10" x1="402.87" y1="32.69" x2="402.87" y2="389.77"/>
	<line fill="none" stroke="#C9C8C8" stroke-width="3" stroke-miterlimit="10" x1="369.22" y1="32.69" x2="369.22" y2="389.77"/>
	<line fill="none" stroke="#C9C8C8" stroke-width="3" stroke-miterlimit="10" x1="335.56" y1="32.69" x2="335.56" y2="389.77"/>
	<line fill="none" stroke="#C9C8C8" stroke-width="3" stroke-miterlimit="10" x1="301.91" y1="32.69" x2="301.91" y2="389.77"/>
	<line fill="none" stroke="#C9C8C8" stroke-width="3" stroke-miterlimit="10" x1="268.26" y1="32.69" x2="268.26" y2="389.77"/>
	<line fill="none" stroke="#C9C8C8" stroke-width="3" stroke-miterlimit="10" x1="234.6" y1="32.69" x2="234.6" y2="389.77"/>
	<line fill="none" stroke="#C9C8C8" stroke-width="3" stroke-miterlimit="10" x1="200.95" y1="32.69" x2="200.95" y2="389.77"/>
	<line fill="none" stroke="#C9C8C8" stroke-width="3" stroke-miterlimit="10" x1="167.3" y1="32.69" x2="167.3" y2="389.77"/>
	<line fill="none" stroke="#C9C8C8" stroke-width="3" stroke-miterlimit="10" x1="133.65" y1="32.69" x2="133.65" y2="389.77"/>
	<line fill="none" stroke="#C9C8C8" stroke-width="3" stroke-miterlimit="10" x1="99.99" y1="32.69" x2="99.99" y2="389.77"/>
	<line fill="none" stroke="#C9C8C8" stroke-width="3" stroke-miterlimit="10" x1="66.34" y1="32.69" x2="66.34" y2="389.77"/>
</g>
<polygon fill="#FFFFFF" stroke="#C9C8C8" stroke-width="3" stroke-miterlimit="10" points="32.69,503.53 32.69,520.43 73.41,520.43 
	73.41,520.42 73.42,520.42 73.42,447.06 73.41,447.06 55.19,447.06 32.69,447.06 32.69,463.95 55.19,463.95 55.19,503.53 "/>
<polygon fill="#FFFFFF" stroke="#C9C8C8" stroke-width="3" stroke-miterlimit="10" points="436.52,463.95 436.52,447.06 
	395.8,447.06 395.8,447.07 395.79,447.07 395.79,520.43 395.8,520.43 414.02,520.43 436.52,520.43 436.52,503.53 414.02,503.53 
	414.02,463.95 "/>
</svg>
