<?xml version="1.0" encoding="utf-8"?>
<!-- Generator: Adobe Illustrator 23.1.0, SVG Export Plug-In . SVG Version: 6.00 Build 0)  -->
<svg version="1.2" baseProfile="tiny" id="Слой_1"
	 xmlns="http://www.w3.org/2000/svg" xmlns:xlink="http://www.w3.org/1999/xlink" x="0px" y="0px" viewBox="0 0 449.42 788.75"
	 xml:space="preserve">
<rect x="29.7" y="28.74" fill="none" stroke="#C9C8C8" stroke-width="3" stroke-miterlimit="10" width="27.24" height="731.28"/>
<rect x="57.59" y="55.97" fill="#DEDEDE" width="335.2" height="342.69"/>
<rect x="393.45" y="28.74" fill="none" stroke="#C9C8C8" stroke-width="3" stroke-miterlimit="10" width="27.24" height="731.28"/>
<rect x="211.58" y="550.9" transform="matrix(-1.836970e-16 1 -1 -1.836970e-16 971.5903 521.1998)" fill="none" stroke="#C9C8C8" stroke-width="3" stroke-miterlimit="10" width="27.24" height="390.98"/>
<rect x="211.58" y="-153.14" transform="matrix(-1.836970e-16 1 -1 -1.836970e-16 267.5507 -182.8399)" fill="none" stroke="#C9C8C8" stroke-width="3" stroke-miterlimit="10" width="27.24" height="390.98"/>
<rect x="56.94" y="425.9" fill="#DEDEDE" width="335.2" height="306.88"/>
<g>
	<rect x="56.94" y="425.17" fill="none" stroke="#C9C8C8" stroke-width="3" stroke-miterlimit="10" width="336.51" height="307.6"/>
	<line fill="none" stroke="#C9C8C8" stroke-width="3" stroke-miterlimit="10" x1="56.94" y1="704.81" x2="393.45" y2="704.81"/>
	<line fill="none" stroke="#C9C8C8" stroke-width="3" stroke-miterlimit="10" x1="56.94" y1="676.85" x2="393.45" y2="676.85"/>
	<line fill="none" stroke="#C9C8C8" stroke-width="3" stroke-miterlimit="10" x1="56.94" y1="648.88" x2="393.45" y2="648.88"/>
	<line fill="none" stroke="#C9C8C8" stroke-width="3" stroke-miterlimit="10" x1="56.94" y1="620.92" x2="393.45" y2="620.92"/>
	<line fill="none" stroke="#C9C8C8" stroke-width="3" stroke-miterlimit="10" x1="56.94" y1="592.96" x2="393.45" y2="592.96"/>
	<line fill="none" stroke="#C9C8C8" stroke-width="3" stroke-miterlimit="10" x1="56.94" y1="564.99" x2="393.45" y2="564.99"/>
	<line fill="none" stroke="#C9C8C8" stroke-width="3" stroke-miterlimit="10" x1="56.94" y1="537.03" x2="393.45" y2="537.03"/>
	<line fill="none" stroke="#C9C8C8" stroke-width="3" stroke-miterlimit="10" x1="56.94" y1="509.06" x2="393.45" y2="509.06"/>
	<line fill="none" stroke="#C9C8C8" stroke-width="3" stroke-miterlimit="10" x1="56.94" y1="481.1" x2="393.45" y2="481.1"/>
	<line fill="none" stroke="#C9C8C8" stroke-width="3" stroke-miterlimit="10" x1="56.94" y1="453.14" x2="393.45" y2="453.14"/>
	<line fill="none" stroke="#C9C8C8" stroke-width="3" stroke-miterlimit="10" x1="365.41" y1="425.17" x2="365.41" y2="732.78"/>
	<line fill="none" stroke="#C9C8C8" stroke-width="3" stroke-miterlimit="10" x1="337.36" y1="425.17" x2="337.36" y2="732.78"/>
	<line fill="none" stroke="#C9C8C8" stroke-width="3" stroke-miterlimit="10" x1="309.32" y1="425.17" x2="309.32" y2="732.78"/>
	<line fill="none" stroke="#C9C8C8" stroke-width="3" stroke-miterlimit="10" x1="281.28" y1="425.17" x2="281.28" y2="732.78"/>
	<line fill="none" stroke="#C9C8C8" stroke-width="3" stroke-miterlimit="10" x1="253.24" y1="425.17" x2="253.24" y2="732.78"/>
	<line fill="none" stroke="#C9C8C8" stroke-width="3" stroke-miterlimit="10" x1="225.2" y1="425.17" x2="225.2" y2="732.78"/>
	<line fill="none" stroke="#C9C8C8" stroke-width="3" stroke-miterlimit="10" x1="197.15" y1="425.17" x2="197.15" y2="732.78"/>
	<line fill="none" stroke="#C9C8C8" stroke-width="3" stroke-miterlimit="10" x1="169.11" y1="425.17" x2="169.11" y2="732.78"/>
	<line fill="none" stroke="#C9C8C8" stroke-width="3" stroke-miterlimit="10" x1="141.07" y1="425.17" x2="141.07" y2="732.78"/>
	<line fill="none" stroke="#C9C8C8" stroke-width="3" stroke-miterlimit="10" x1="113.03" y1="425.17" x2="113.03" y2="732.78"/>
	<line fill="none" stroke="#C9C8C8" stroke-width="3" stroke-miterlimit="10" x1="84.98" y1="425.17" x2="84.98" y2="732.78"/>
</g>
<g>
	<rect x="57.59" y="55.97" fill="none" stroke="#C9C8C8" stroke-width="3" stroke-miterlimit="10" width="335.2" height="342.69"/>
	<line fill="none" stroke="#C9C8C8" stroke-width="3" stroke-miterlimit="10" x1="57.59" y1="370.11" x2="392.8" y2="370.11"/>
	<line fill="none" stroke="#C9C8C8" stroke-width="3" stroke-miterlimit="10" x1="57.59" y1="341.55" x2="392.8" y2="341.55"/>
	<line fill="none" stroke="#C9C8C8" stroke-width="3" stroke-miterlimit="10" x1="57.59" y1="312.99" x2="392.8" y2="312.99"/>
	<line fill="none" stroke="#C9C8C8" stroke-width="3" stroke-miterlimit="10" x1="57.59" y1="284.43" x2="392.8" y2="284.43"/>
	<line fill="none" stroke="#C9C8C8" stroke-width="3" stroke-miterlimit="10" x1="57.59" y1="255.88" x2="392.8" y2="255.88"/>
	<line fill="none" stroke="#C9C8C8" stroke-width="3" stroke-miterlimit="10" x1="57.59" y1="227.32" x2="392.8" y2="227.32"/>
	<line fill="none" stroke="#C9C8C8" stroke-width="3" stroke-miterlimit="10" x1="57.59" y1="198.76" x2="392.8" y2="198.76"/>
	<line fill="none" stroke="#C9C8C8" stroke-width="3" stroke-miterlimit="10" x1="57.59" y1="170.2" x2="392.8" y2="170.2"/>
	<line fill="none" stroke="#C9C8C8" stroke-width="3" stroke-miterlimit="10" x1="57.59" y1="141.65" x2="392.8" y2="141.65"/>
	<line fill="none" stroke="#C9C8C8" stroke-width="3" stroke-miterlimit="10" x1="57.59" y1="113.09" x2="392.8" y2="113.09"/>
	<line fill="none" stroke="#C9C8C8" stroke-width="3" stroke-miterlimit="10" x1="57.59" y1="84.53" x2="392.8" y2="84.53"/>
	<line fill="none" stroke="#C9C8C8" stroke-width="3" stroke-miterlimit="10" x1="364.86" y1="55.97" x2="364.86" y2="398.66"/>
	<line fill="none" stroke="#C9C8C8" stroke-width="3" stroke-miterlimit="10" x1="336.93" y1="55.97" x2="336.93" y2="398.66"/>
	<line fill="none" stroke="#C9C8C8" stroke-width="3" stroke-miterlimit="10" x1="309" y1="55.97" x2="309" y2="398.66"/>
	<line fill="none" stroke="#C9C8C8" stroke-width="3" stroke-miterlimit="10" x1="281.06" y1="55.97" x2="281.06" y2="398.66"/>
	<line fill="none" stroke="#C9C8C8" stroke-width="3" stroke-miterlimit="10" x1="253.13" y1="55.97" x2="253.13" y2="398.66"/>
	<line fill="none" stroke="#C9C8C8" stroke-width="3" stroke-miterlimit="10" x1="225.2" y1="55.97" x2="225.2" y2="398.66"/>
	<line fill="none" stroke="#C9C8C8" stroke-width="3" stroke-miterlimit="10" x1="197.26" y1="55.97" x2="197.26" y2="398.66"/>
	<line fill="none" stroke="#C9C8C8" stroke-width="3" stroke-miterlimit="10" x1="169.33" y1="55.97" x2="169.33" y2="398.66"/>
	<line fill="none" stroke="#C9C8C8" stroke-width="3" stroke-miterlimit="10" x1="141.39" y1="55.97" x2="141.39" y2="398.66"/>
	<line fill="none" stroke="#C9C8C8" stroke-width="3" stroke-miterlimit="10" x1="113.46" y1="55.97" x2="113.46" y2="398.66"/>
	<line fill="none" stroke="#C9C8C8" stroke-width="3" stroke-miterlimit="10" x1="85.53" y1="55.97" x2="85.53" y2="398.66"/>
</g>
<rect x="420.69" y="28.74" fill="none" stroke="#C9C8C8" stroke-width="3" stroke-miterlimit="10" width="27.24" height="758.51"/>
<rect x="211.26" y="-207.92" transform="matrix(-1.836970e-16 1 -1 -1.836970e-16 239.9982 -209.7613)" fill="none" stroke="#C9C8C8" stroke-width="3" stroke-miterlimit="10" width="27.24" height="446.09"/>
<rect x="1.84" y="28.74" fill="none" stroke="#C9C8C8" stroke-width="3" stroke-miterlimit="10" width="27.24" height="758.51"/>
<rect x="211.58" y="216.79" transform="matrix(-1.836970e-16 1 -1 -1.836970e-16 637.4763 187.0857)" fill="#FFFFFF" stroke="#C9C8C8" stroke-width="3" stroke-miterlimit="10" width="27.24" height="390.98"/>
<polygon fill="#FFFFFF" stroke="#C9C8C8" stroke-width="3" stroke-miterlimit="10" points="56.94,361.88 56.94,378.77 97.67,378.77 
	97.67,378.76 97.67,378.76 97.67,305.4 97.67,305.4 79.44,305.4 56.94,305.4 56.94,322.3 79.44,322.3 79.44,361.88 "/>
<rect x="210.92" y="550.59" transform="matrix(-1.836970e-16 1 -1 -1.836970e-16 998.1751 549.0888)" fill="none" stroke="#C9C8C8" stroke-width="3" stroke-miterlimit="10" width="27.24" height="446.09"/>
</svg>
