<?xml version="1.0" encoding="utf-8"?>
<!-- Generator: Adobe Illustrator 23.1.0, SVG Export Plug-In . SVG Version: 6.00 Build 0)  -->
<svg version="1.2" baseProfile="tiny" id="Слой_1"
	 xmlns="http://www.w3.org/2000/svg" xmlns:xlink="http://www.w3.org/1999/xlink" x="0px" y="0px" viewBox="0 0 595.28 841.89"
	 xml:space="preserve">
<rect x="63.03" y="14.84" fill="none" stroke="#C9C8C8" stroke-width="3" stroke-miterlimit="10" width="32.69" height="812.22"/>
<rect x="499.56" y="14.84" fill="none" stroke="#C9C8C8" stroke-width="3" stroke-miterlimit="10" width="32.69" height="812.22"/>
<rect x="281.29" y="576.11" transform="matrix(-1.836970e-16 1 -1 -1.836970e-16 1108.3481 513.0726)" fill="none" stroke="#C9C8C8" stroke-width="3" stroke-miterlimit="10" width="32.69" height="469.21"/>
<rect x="281.29" y="-203.43" transform="matrix(-1.836970e-16 1 -1 -1.836970e-16 328.8172 -266.4584)" fill="none" stroke="#C9C8C8" stroke-width="3" stroke-miterlimit="10" width="32.69" height="469.21"/>
<rect x="95.72" y="404.6" fill="#DEDEDE" width="402.27" height="388.33"/>
<rect x="96.48" y="47.52" fill="#DEDEDE" width="402.32" height="357.08"/>
<g>
	<rect x="98.75" y="442.04" fill="none" width="397.64" height="351.33"/>
	<line fill="none" x1="98.75" y1="734.82" x2="496.39" y2="734.82"/>
	<line fill="none" x1="98.75" y1="676.26" x2="496.39" y2="676.26"/>
	<line fill="none" x1="98.75" y1="617.71" x2="496.39" y2="617.71"/>
	<line fill="none" x1="98.75" y1="559.15" x2="496.39" y2="559.15"/>
	<line fill="none" x1="98.75" y1="500.6" x2="496.39" y2="500.6"/>
	<line fill="none" x1="430.12" y1="442.04" x2="430.12" y2="793.37"/>
	<line fill="none" x1="363.84" y1="442.04" x2="363.84" y2="793.37"/>
	<line fill="none" x1="297.57" y1="442.04" x2="297.57" y2="793.37"/>
	<line fill="none" x1="231.3" y1="442.04" x2="231.3" y2="793.37"/>
	<line fill="none" x1="165.02" y1="442.04" x2="165.02" y2="793.37"/>
</g>
<g>
	
		<rect x="95.72" y="425.22" fill="none" stroke="#C9C8C8" stroke-width="3" stroke-miterlimit="10" width="403.84" height="369.15"/>
	<line fill="none" stroke="#C9C8C8" stroke-width="3" stroke-miterlimit="10" x1="95.72" y1="760.81" x2="499.56" y2="760.81"/>
	<line fill="none" stroke="#C9C8C8" stroke-width="3" stroke-miterlimit="10" x1="95.72" y1="727.25" x2="499.56" y2="727.25"/>
	<line fill="none" stroke="#C9C8C8" stroke-width="3" stroke-miterlimit="10" x1="95.72" y1="693.69" x2="499.56" y2="693.69"/>
	<line fill="none" stroke="#C9C8C8" stroke-width="3" stroke-miterlimit="10" x1="95.72" y1="660.13" x2="499.56" y2="660.13"/>
	<line fill="none" stroke="#C9C8C8" stroke-width="3" stroke-miterlimit="10" x1="95.72" y1="626.57" x2="499.56" y2="626.57"/>
	<line fill="none" stroke="#C9C8C8" stroke-width="3" stroke-miterlimit="10" x1="95.72" y1="593.01" x2="499.56" y2="593.01"/>
	<line fill="none" stroke="#C9C8C8" stroke-width="3" stroke-miterlimit="10" x1="95.72" y1="559.45" x2="499.56" y2="559.45"/>
	<line fill="none" stroke="#C9C8C8" stroke-width="3" stroke-miterlimit="10" x1="95.72" y1="525.89" x2="499.56" y2="525.89"/>
	<line fill="none" stroke="#C9C8C8" stroke-width="3" stroke-miterlimit="10" x1="95.72" y1="492.34" x2="499.56" y2="492.34"/>
	<line fill="none" stroke="#C9C8C8" stroke-width="3" stroke-miterlimit="10" x1="95.72" y1="458.78" x2="499.56" y2="458.78"/>
	<line fill="none" stroke="#C9C8C8" stroke-width="3" stroke-miterlimit="10" x1="465.9" y1="425.22" x2="465.9" y2="794.37"/>
	<line fill="none" stroke="#C9C8C8" stroke-width="3" stroke-miterlimit="10" x1="432.25" y1="425.22" x2="432.25" y2="794.37"/>
	<line fill="none" stroke="#C9C8C8" stroke-width="3" stroke-miterlimit="10" x1="398.6" y1="425.22" x2="398.6" y2="794.37"/>
	<line fill="none" stroke="#C9C8C8" stroke-width="3" stroke-miterlimit="10" x1="364.94" y1="425.22" x2="364.94" y2="794.37"/>
	<line fill="none" stroke="#C9C8C8" stroke-width="3" stroke-miterlimit="10" x1="331.29" y1="425.22" x2="331.29" y2="794.37"/>
	<line fill="none" stroke="#C9C8C8" stroke-width="3" stroke-miterlimit="10" x1="297.64" y1="425.22" x2="297.64" y2="794.37"/>
	<line fill="none" stroke="#C9C8C8" stroke-width="3" stroke-miterlimit="10" x1="263.98" y1="425.22" x2="263.98" y2="794.37"/>
	<line fill="none" stroke="#C9C8C8" stroke-width="3" stroke-miterlimit="10" x1="230.33" y1="425.22" x2="230.33" y2="794.37"/>
	<line fill="none" stroke="#C9C8C8" stroke-width="3" stroke-miterlimit="10" x1="196.68" y1="425.22" x2="196.68" y2="794.37"/>
	<line fill="none" stroke="#C9C8C8" stroke-width="3" stroke-miterlimit="10" x1="163.03" y1="425.22" x2="163.03" y2="794.37"/>
	<line fill="none" stroke="#C9C8C8" stroke-width="3" stroke-miterlimit="10" x1="129.37" y1="425.22" x2="129.37" y2="794.37"/>
</g>
<g>
	<rect x="95.72" y="47.52" fill="none" stroke="#C9C8C8" stroke-width="3" stroke-miterlimit="10" width="403.84" height="377.69"/>
	<line fill="none" stroke="#C9C8C8" stroke-width="3" stroke-miterlimit="10" x1="95.72" y1="390.88" x2="499.56" y2="390.88"/>
	<line fill="none" stroke="#C9C8C8" stroke-width="3" stroke-miterlimit="10" x1="95.72" y1="356.55" x2="499.56" y2="356.55"/>
	<line fill="none" stroke="#C9C8C8" stroke-width="3" stroke-miterlimit="10" x1="95.72" y1="322.21" x2="499.56" y2="322.21"/>
	<line fill="none" stroke="#C9C8C8" stroke-width="3" stroke-miterlimit="10" x1="95.72" y1="287.87" x2="499.56" y2="287.87"/>
	<line fill="none" stroke="#C9C8C8" stroke-width="3" stroke-miterlimit="10" x1="95.72" y1="253.54" x2="499.56" y2="253.54"/>
	<line fill="none" stroke="#C9C8C8" stroke-width="3" stroke-miterlimit="10" x1="95.72" y1="219.2" x2="499.56" y2="219.2"/>
	<line fill="none" stroke="#C9C8C8" stroke-width="3" stroke-miterlimit="10" x1="95.72" y1="184.87" x2="499.56" y2="184.87"/>
	<line fill="none" stroke="#C9C8C8" stroke-width="3" stroke-miterlimit="10" x1="95.72" y1="150.53" x2="499.56" y2="150.53"/>
	<line fill="none" stroke="#C9C8C8" stroke-width="3" stroke-miterlimit="10" x1="95.72" y1="116.19" x2="499.56" y2="116.19"/>
	<line fill="none" stroke="#C9C8C8" stroke-width="3" stroke-miterlimit="10" x1="95.72" y1="81.86" x2="499.56" y2="81.86"/>
	<line fill="none" stroke="#C9C8C8" stroke-width="3" stroke-miterlimit="10" x1="465.9" y1="47.52" x2="465.9" y2="425.22"/>
	<line fill="none" stroke="#C9C8C8" stroke-width="3" stroke-miterlimit="10" x1="432.25" y1="47.52" x2="432.25" y2="425.22"/>
	<line fill="none" stroke="#C9C8C8" stroke-width="3" stroke-miterlimit="10" x1="398.6" y1="47.52" x2="398.6" y2="425.22"/>
	<line fill="none" stroke="#C9C8C8" stroke-width="3" stroke-miterlimit="10" x1="364.94" y1="47.52" x2="364.94" y2="425.22"/>
	<line fill="none" stroke="#C9C8C8" stroke-width="3" stroke-miterlimit="10" x1="331.29" y1="47.52" x2="331.29" y2="425.22"/>
	<line fill="none" stroke="#C9C8C8" stroke-width="3" stroke-miterlimit="10" x1="297.64" y1="47.52" x2="297.64" y2="425.22"/>
	<line fill="none" stroke="#C9C8C8" stroke-width="3" stroke-miterlimit="10" x1="263.98" y1="47.52" x2="263.98" y2="425.22"/>
	<line fill="none" stroke="#C9C8C8" stroke-width="3" stroke-miterlimit="10" x1="230.33" y1="47.52" x2="230.33" y2="425.22"/>
	<line fill="none" stroke="#C9C8C8" stroke-width="3" stroke-miterlimit="10" x1="196.68" y1="47.52" x2="196.68" y2="425.22"/>
	<line fill="none" stroke="#C9C8C8" stroke-width="3" stroke-miterlimit="10" x1="163.03" y1="47.52" x2="163.03" y2="425.22"/>
	<line fill="none" stroke="#C9C8C8" stroke-width="3" stroke-miterlimit="10" x1="129.37" y1="47.52" x2="129.37" y2="425.22"/>
</g>
</svg>
