<?xml version="1.0" encoding="utf-8"?>
<!-- Generator: Adobe Illustrator 23.1.0, SVG Export Plug-In . SVG Version: 6.00 Build 0)  -->
<svg version="1.2" baseProfile="tiny" id="Слой_1"
	 xmlns="http://www.w3.org/2000/svg" xmlns:xlink="http://www.w3.org/1999/xlink" x="0px" y="0px" viewBox="0 0 469.21 812.22"
	 xml:space="preserve">
<rect y="0" fill="none" stroke="#C9C8C8" stroke-width="3" stroke-miterlimit="10" width="32.69" height="812.22"/>
<rect x="436.52" fill="none" stroke="#C9C8C8" stroke-width="3" stroke-miterlimit="10" width="32.69" height="812.22"/>
<rect x="218.26" y="561.27" transform="matrix(-1.836970e-16 1 -1 -1.836970e-16 1030.4786 561.2697)" fill="none" stroke="#C9C8C8" stroke-width="3" stroke-miterlimit="10" width="32.69" height="469.21"/>
<rect x="218.26" y="-218.26" transform="matrix(-1.836970e-16 1 -1 -1.836970e-16 250.9476 -218.2612)" fill="none" stroke="#C9C8C8" stroke-width="3" stroke-miterlimit="10" width="32.69" height="469.21"/>
<rect x="32.69" y="389.77" fill="#DEDEDE" width="402.27" height="388.33"/>
<rect x="33.44" y="32.69" fill="#DEDEDE" width="402.32" height="357.08"/>
<g>
	<rect x="35.72" y="427.21" fill="none" width="397.64" height="351.33"/>
	<line fill="none" x1="35.72" y1="719.98" x2="433.36" y2="719.98"/>
	<line fill="none" x1="35.72" y1="661.43" x2="433.36" y2="661.43"/>
	<line fill="none" x1="35.72" y1="602.87" x2="433.36" y2="602.87"/>
	<line fill="none" x1="35.72" y1="544.32" x2="433.36" y2="544.32"/>
	<line fill="none" x1="35.72" y1="485.76" x2="433.36" y2="485.76"/>
	<line fill="none" x1="367.09" y1="427.21" x2="367.09" y2="778.53"/>
	<line fill="none" x1="300.81" y1="427.21" x2="300.81" y2="778.53"/>
	<line fill="none" x1="234.54" y1="427.21" x2="234.54" y2="778.53"/>
	<line fill="none" x1="168.26" y1="427.21" x2="168.26" y2="778.53"/>
	<line fill="none" x1="101.99" y1="427.21" x2="101.99" y2="778.53"/>
</g>
<g>
	
		<rect x="32.69" y="410.38" fill="none" stroke="#C9C8C8" stroke-width="3" stroke-miterlimit="10" width="403.84" height="369.15"/>
	<line fill="none" stroke="#C9C8C8" stroke-width="3" stroke-miterlimit="10" x1="32.69" y1="745.97" x2="436.52" y2="745.97"/>
	<line fill="none" stroke="#C9C8C8" stroke-width="3" stroke-miterlimit="10" x1="32.69" y1="712.41" x2="436.52" y2="712.41"/>
	<line fill="none" stroke="#C9C8C8" stroke-width="3" stroke-miterlimit="10" x1="32.69" y1="678.85" x2="436.52" y2="678.85"/>
	<line fill="none" stroke="#C9C8C8" stroke-width="3" stroke-miterlimit="10" x1="32.69" y1="645.29" x2="436.52" y2="645.29"/>
	<line fill="none" stroke="#C9C8C8" stroke-width="3" stroke-miterlimit="10" x1="32.69" y1="611.74" x2="436.52" y2="611.74"/>
	<line fill="none" stroke="#C9C8C8" stroke-width="3" stroke-miterlimit="10" x1="32.69" y1="578.18" x2="436.52" y2="578.18"/>
	<line fill="none" stroke="#C9C8C8" stroke-width="3" stroke-miterlimit="10" x1="32.69" y1="544.62" x2="436.52" y2="544.62"/>
	<line fill="none" stroke="#C9C8C8" stroke-width="3" stroke-miterlimit="10" x1="32.69" y1="511.06" x2="436.52" y2="511.06"/>
	<line fill="none" stroke="#C9C8C8" stroke-width="3" stroke-miterlimit="10" x1="32.69" y1="477.5" x2="436.52" y2="477.5"/>
	<line fill="none" stroke="#C9C8C8" stroke-width="3" stroke-miterlimit="10" x1="32.69" y1="443.94" x2="436.52" y2="443.94"/>
	<line fill="none" stroke="#C9C8C8" stroke-width="3" stroke-miterlimit="10" x1="402.87" y1="410.38" x2="402.87" y2="779.53"/>
	<line fill="none" stroke="#C9C8C8" stroke-width="3" stroke-miterlimit="10" x1="369.22" y1="410.38" x2="369.22" y2="779.53"/>
	<line fill="none" stroke="#C9C8C8" stroke-width="3" stroke-miterlimit="10" x1="335.56" y1="410.38" x2="335.56" y2="779.53"/>
	<line fill="none" stroke="#C9C8C8" stroke-width="3" stroke-miterlimit="10" x1="301.91" y1="410.38" x2="301.91" y2="779.53"/>
	<line fill="none" stroke="#C9C8C8" stroke-width="3" stroke-miterlimit="10" x1="268.26" y1="410.38" x2="268.26" y2="779.53"/>
	<line fill="none" stroke="#C9C8C8" stroke-width="3" stroke-miterlimit="10" x1="234.6" y1="410.38" x2="234.6" y2="779.53"/>
	<line fill="none" stroke="#C9C8C8" stroke-width="3" stroke-miterlimit="10" x1="200.95" y1="410.38" x2="200.95" y2="779.53"/>
	<line fill="none" stroke="#C9C8C8" stroke-width="3" stroke-miterlimit="10" x1="167.3" y1="410.38" x2="167.3" y2="779.53"/>
	<line fill="none" stroke="#C9C8C8" stroke-width="3" stroke-miterlimit="10" x1="133.65" y1="410.38" x2="133.65" y2="779.53"/>
	<line fill="none" stroke="#C9C8C8" stroke-width="3" stroke-miterlimit="10" x1="99.99" y1="410.38" x2="99.99" y2="779.53"/>
	<line fill="none" stroke="#C9C8C8" stroke-width="3" stroke-miterlimit="10" x1="66.34" y1="410.38" x2="66.34" y2="779.53"/>
</g>
<g>
	<rect x="32.69" y="32.69" fill="none" stroke="#C9C8C8" stroke-width="3" stroke-miterlimit="10" width="403.84" height="377.69"/>
	<line fill="none" stroke="#C9C8C8" stroke-width="3" stroke-miterlimit="10" x1="32.69" y1="376.05" x2="436.52" y2="376.05"/>
	<line fill="none" stroke="#C9C8C8" stroke-width="3" stroke-miterlimit="10" x1="32.69" y1="341.71" x2="436.52" y2="341.71"/>
	<line fill="none" stroke="#C9C8C8" stroke-width="3" stroke-miterlimit="10" x1="32.69" y1="307.37" x2="436.52" y2="307.37"/>
	<line fill="none" stroke="#C9C8C8" stroke-width="3" stroke-miterlimit="10" x1="32.69" y1="273.04" x2="436.52" y2="273.04"/>
	<line fill="none" stroke="#C9C8C8" stroke-width="3" stroke-miterlimit="10" x1="32.69" y1="238.7" x2="436.52" y2="238.7"/>
	<line fill="none" stroke="#C9C8C8" stroke-width="3" stroke-miterlimit="10" x1="32.69" y1="204.37" x2="436.52" y2="204.37"/>
	<line fill="none" stroke="#C9C8C8" stroke-width="3" stroke-miterlimit="10" x1="32.69" y1="170.03" x2="436.52" y2="170.03"/>
	<line fill="none" stroke="#C9C8C8" stroke-width="3" stroke-miterlimit="10" x1="32.69" y1="135.69" x2="436.52" y2="135.69"/>
	<line fill="none" stroke="#C9C8C8" stroke-width="3" stroke-miterlimit="10" x1="32.69" y1="101.36" x2="436.52" y2="101.36"/>
	<line fill="none" stroke="#C9C8C8" stroke-width="3" stroke-miterlimit="10" x1="32.69" y1="67.02" x2="436.52" y2="67.02"/>
	<line fill="none" stroke="#C9C8C8" stroke-width="3" stroke-miterlimit="10" x1="402.87" y1="32.69" x2="402.87" y2="410.38"/>
	<line fill="none" stroke="#C9C8C8" stroke-width="3" stroke-miterlimit="10" x1="369.22" y1="32.69" x2="369.22" y2="410.38"/>
	<line fill="none" stroke="#C9C8C8" stroke-width="3" stroke-miterlimit="10" x1="335.56" y1="32.69" x2="335.56" y2="410.38"/>
	<line fill="none" stroke="#C9C8C8" stroke-width="3" stroke-miterlimit="10" x1="301.91" y1="32.69" x2="301.91" y2="410.38"/>
	<line fill="none" stroke="#C9C8C8" stroke-width="3" stroke-miterlimit="10" x1="268.26" y1="32.69" x2="268.26" y2="410.38"/>
	<line fill="none" stroke="#C9C8C8" stroke-width="3" stroke-miterlimit="10" x1="234.6" y1="32.69" x2="234.6" y2="410.38"/>
	<line fill="none" stroke="#C9C8C8" stroke-width="3" stroke-miterlimit="10" x1="200.95" y1="32.69" x2="200.95" y2="410.38"/>
	<line fill="none" stroke="#C9C8C8" stroke-width="3" stroke-miterlimit="10" x1="167.3" y1="32.69" x2="167.3" y2="410.38"/>
	<line fill="none" stroke="#C9C8C8" stroke-width="3" stroke-miterlimit="10" x1="133.65" y1="32.69" x2="133.65" y2="410.38"/>
	<line fill="none" stroke="#C9C8C8" stroke-width="3" stroke-miterlimit="10" x1="99.99" y1="32.69" x2="99.99" y2="410.38"/>
	<line fill="none" stroke="#C9C8C8" stroke-width="3" stroke-miterlimit="10" x1="66.34" y1="32.69" x2="66.34" y2="410.38"/>
</g>
</svg>
