<?xml version="1.0" encoding="utf-8"?>
<!-- Generator: Adobe Illustrator 23.1.0, SVG Export Plug-In . SVG Version: 6.00 Build 0)  -->
<svg version="1.2" baseProfile="tiny" xmlns="http://www.w3.org/2000/svg" xmlns:xlink="http://www.w3.org/1999/xlink" x="0px"
	 y="0px" viewBox="0 0 536.74 945.96" xml:space="preserve">
<g id="Слой_1">
	<rect x="66.45" y="67.85" fill="#DEDEDE" width="402.94" height="812.22"/>
	<rect x="33.77" y="34.19" fill="none" stroke="#C9C8C8" stroke-width="3" stroke-miterlimit="10" width="32.69" height="877.59"/>
	<rect x="470.29" y="34.19" fill="none" stroke="#C9C8C8" stroke-width="3" stroke-miterlimit="10" width="32.69" height="877.59"/>
	
		<rect x="252.03" y="660.83" transform="matrix(-1.836970e-16 1 -1 -1.836970e-16 1163.8031 627.064)" fill="none" stroke="#C9C8C8" stroke-width="3" stroke-miterlimit="10" width="32.69" height="469.21"/>
	<g>
		
			<rect x="67.34" y="67.85" fill="none" stroke="#C9C8C8" stroke-width="3" stroke-miterlimit="10" width="402.05" height="812.22"/>
		<line fill="none" stroke="#C9C8C8" stroke-width="3" stroke-miterlimit="10" x1="67.34" y1="846.23" x2="469.4" y2="846.23"/>
		<line fill="none" stroke="#C9C8C8" stroke-width="3" stroke-miterlimit="10" x1="67.34" y1="812.38" x2="469.4" y2="812.38"/>
		<line fill="none" stroke="#C9C8C8" stroke-width="3" stroke-miterlimit="10" x1="67.34" y1="778.54" x2="469.4" y2="778.54"/>
		<line fill="none" stroke="#C9C8C8" stroke-width="3" stroke-miterlimit="10" x1="67.34" y1="744.7" x2="469.4" y2="744.7"/>
		<line fill="none" stroke="#C9C8C8" stroke-width="3" stroke-miterlimit="10" x1="67.34" y1="710.86" x2="469.4" y2="710.86"/>
		<line fill="none" stroke="#C9C8C8" stroke-width="3" stroke-miterlimit="10" x1="67.34" y1="677.01" x2="469.4" y2="677.01"/>
		<line fill="none" stroke="#C9C8C8" stroke-width="3" stroke-miterlimit="10" x1="67.34" y1="643.17" x2="469.4" y2="643.17"/>
		<line fill="none" stroke="#C9C8C8" stroke-width="3" stroke-miterlimit="10" x1="67.34" y1="609.33" x2="469.4" y2="609.33"/>
		<line fill="none" stroke="#C9C8C8" stroke-width="3" stroke-miterlimit="10" x1="67.34" y1="575.49" x2="469.4" y2="575.49"/>
		<line fill="none" stroke="#C9C8C8" stroke-width="3" stroke-miterlimit="10" x1="67.34" y1="541.64" x2="469.4" y2="541.64"/>
		<line fill="none" stroke="#C9C8C8" stroke-width="3" stroke-miterlimit="10" x1="67.34" y1="507.8" x2="469.4" y2="507.8"/>
		<line fill="none" stroke="#C9C8C8" stroke-width="3" stroke-miterlimit="10" x1="67.34" y1="473.96" x2="469.4" y2="473.96"/>
		<line fill="none" stroke="#C9C8C8" stroke-width="3" stroke-miterlimit="10" x1="67.34" y1="440.12" x2="469.4" y2="440.12"/>
		<line fill="none" stroke="#C9C8C8" stroke-width="3" stroke-miterlimit="10" x1="67.34" y1="406.28" x2="469.4" y2="406.28"/>
		<line fill="none" stroke="#C9C8C8" stroke-width="3" stroke-miterlimit="10" x1="67.34" y1="372.43" x2="469.4" y2="372.43"/>
		<line fill="none" stroke="#C9C8C8" stroke-width="3" stroke-miterlimit="10" x1="67.34" y1="338.59" x2="469.4" y2="338.59"/>
		<line fill="none" stroke="#C9C8C8" stroke-width="3" stroke-miterlimit="10" x1="67.34" y1="304.75" x2="469.4" y2="304.75"/>
		<line fill="none" stroke="#C9C8C8" stroke-width="3" stroke-miterlimit="10" x1="67.34" y1="270.91" x2="469.4" y2="270.91"/>
		<line fill="none" stroke="#C9C8C8" stroke-width="3" stroke-miterlimit="10" x1="67.34" y1="237.06" x2="469.4" y2="237.06"/>
		<line fill="none" stroke="#C9C8C8" stroke-width="3" stroke-miterlimit="10" x1="67.34" y1="203.22" x2="469.4" y2="203.22"/>
		<line fill="none" stroke="#C9C8C8" stroke-width="3" stroke-miterlimit="10" x1="67.34" y1="169.38" x2="469.4" y2="169.38"/>
		<line fill="none" stroke="#C9C8C8" stroke-width="3" stroke-miterlimit="10" x1="67.34" y1="135.54" x2="469.4" y2="135.54"/>
		<line fill="none" stroke="#C9C8C8" stroke-width="3" stroke-miterlimit="10" x1="67.34" y1="101.69" x2="469.4" y2="101.69"/>
		<line fill="none" stroke="#C9C8C8" stroke-width="3" stroke-miterlimit="10" x1="435.89" y1="67.85" x2="435.89" y2="880.07"/>
		<line fill="none" stroke="#C9C8C8" stroke-width="3" stroke-miterlimit="10" x1="402.39" y1="67.85" x2="402.39" y2="880.07"/>
		<line fill="none" stroke="#C9C8C8" stroke-width="3" stroke-miterlimit="10" x1="368.88" y1="67.85" x2="368.88" y2="880.07"/>
		<line fill="none" stroke="#C9C8C8" stroke-width="3" stroke-miterlimit="10" x1="335.38" y1="67.85" x2="335.38" y2="880.07"/>
		<line fill="none" stroke="#C9C8C8" stroke-width="3" stroke-miterlimit="10" x1="301.87" y1="67.85" x2="301.87" y2="880.07"/>
		<line fill="none" stroke="#C9C8C8" stroke-width="3" stroke-miterlimit="10" x1="268.37" y1="67.85" x2="268.37" y2="880.07"/>
		<line fill="none" stroke="#C9C8C8" stroke-width="3" stroke-miterlimit="10" x1="234.87" y1="67.85" x2="234.87" y2="880.07"/>
		<line fill="none" stroke="#C9C8C8" stroke-width="3" stroke-miterlimit="10" x1="201.36" y1="67.85" x2="201.36" y2="880.07"/>
		<line fill="none" stroke="#C9C8C8" stroke-width="3" stroke-miterlimit="10" x1="167.86" y1="67.85" x2="167.86" y2="880.07"/>
		<line fill="none" stroke="#C9C8C8" stroke-width="3" stroke-miterlimit="10" x1="134.35" y1="67.85" x2="134.35" y2="880.07"/>
		<line fill="none" stroke="#C9C8C8" stroke-width="3" stroke-miterlimit="10" x1="100.85" y1="67.85" x2="100.85" y2="880.07"/>
	</g>
	
		<rect x="252.03" y="-184.07" transform="matrix(-1.836970e-16 1 -1 -1.836970e-16 318.8993 -217.8399)" fill="none" stroke="#C9C8C8" stroke-width="3" stroke-miterlimit="10" width="32.69" height="469.21"/>
	
		<rect x="252.03" y="661.25" transform="matrix(-1.836970e-16 1 -1 -1.836970e-16 1196.4895 659.7504)" fill="#E2E2E2" stroke="#C9C8C8" stroke-width="3" stroke-miterlimit="10" width="32.69" height="533.74"/>
	
		<rect x="252.03" y="-249.03" transform="matrix(-1.836970e-16 1 -1 -1.836970e-16 286.2128 -250.5263)" fill="#E2E2E2" stroke="#C9C8C8" stroke-width="3" stroke-miterlimit="10" width="32.69" height="533.74"/>
	<polygon fill="#FFFFFF" stroke="#C9C8C8" stroke-width="3" stroke-miterlimit="10" points="66.67,492.77 66.67,509.67 
		107.4,509.67 107.4,509.66 107.4,509.66 107.4,436.3 107.4,436.3 89.17,436.3 66.67,436.3 66.67,453.19 89.17,453.19 89.17,492.77 
			"/>
	<polygon fill="#FFFFFF" stroke="#C9C8C8" stroke-width="3" stroke-miterlimit="10" points="470.5,453.19 470.5,436.3 429.78,436.3 
		429.78,436.31 429.77,436.31 429.77,509.67 429.78,509.67 448,509.67 470.5,509.67 470.5,492.77 448,492.77 448,453.19 	"/>
</g>
<g id="Слой_2">
</g>
</svg>
